<?xml version="1.0" encoding="iso-8859-1"?>
<!-- Generator: Adobe Illustrator 19.0.0, SVG Export Plug-In . SVG Version: 6.00 Build 0)  -->
<svg version="1.1" id="Layer_1" xmlns="http://www.w3.org/2000/svg" xmlns:xlink="http://www.w3.org/1999/xlink" x="0px" y="0px"
	 viewBox="0 0 496.2 496.2" style="enable-background:new 0 0 496.2 496.2;" xml:space="preserve">
<path style="fill:#2c3e50;" d="M496.2,248.1C496.2,111.1,385.1,0,248.1,0S0,111.1,0,248.1s111.1,248.1,248.1,248.1
	S496.2,385.1,496.2,248.1z"/>
<path style="fill:#0F1111;" d="M247.8,333.4c-77.2,0-139.1,22.1-146.4,49.3c-3.3,12.2-7,35.2-10.1,57.5
	c42.7,34.9,97.4,55.9,156.9,55.9s114.1-21,156.9-55.9c-3.2-22.3-6.9-45.4-10.1-57.5C387.5,355.5,324.9,333.4,247.8,333.4z"/>
<path style="fill:#172023;" d="M279.1,374.8l-31-14.5l-31,14.5l-29.5-36.5c0,0,22-9.5,60.5-9.5s60.5,9.5,60.5,9.5L279.1,374.8z"/>
<g>
	<path style="fill:#070707;" d="M101.4,382.8c-3.3,12.2-7,35.2-10.1,57.5c17.6,14.4,37.2,26.4,58.4,35.6V347.4
		C122.9,356.4,105.1,368.9,101.4,382.8z"/>
	<path style="fill:#070707;" d="M394.8,382.8c-3.7-13.8-21.5-26.3-48.2-35.2v128.3c21.1-9.2,40.8-21.2,58.4-35.6
		C401.8,417.9,398.1,394.9,394.8,382.8z"/>
</g>
<rect x="270.6" y="416.1" style="fill:#0B0C0C;" width="58" height="49"/>
<polygon style="fill:#0F1111;" points="328.6,425.3 299.6,437.3 270.6,425.3 270.6,420.1 328.6,420.1 "/>
<polygon style="fill:#0B0C0C;" points="328.6,422.6 299.6,434.6 270.6,422.6 270.6,416.1 328.6,416.1 "/>
<path style="fill:#E2A379;" d="M287,282.1h-77.8c12.1,36.6,1,53.3,1,53.3l37.9,23.2l37.9-23.2C286,335.4,274.9,318.7,287,282.1z"/>
<path style="fill:#0F1111;" d="M336.4,191.2c0-92.4-39.5-113.6-88.3-113.6c-48.7,0-88.3,21.2-88.3,113.6c0,31.3,6.2,55.8,15.5,74.7
	c20.4,41.6,55.7,52.7,72.8,52.7s52.4-11.1,72.8-52.7C330.2,247,336.4,222.5,336.4,191.2z"/>
<g>
	<path style="fill:#F4B382;" d="M327.9,175.2c0-92.4-35.7-113.6-79.8-113.6c-44,0-79.8,21.2-79.8,113.6c0,31.3,5.6,55.8,14,74.7
		c18.4,41.6,50.3,56.1,65.8,56.1c15.4,0,47.3-14.5,65.8-56.1C322.3,231,327.9,206.5,327.9,175.2z"/>
	<path style="fill:#F4B382;" d="M160.7,207.7c4.3,25.2,9.6,26.3,17.3,25l-8.1-54.8C162.2,179.3,156.4,182.6,160.7,207.7z"/>
	<path style="fill:#F4B382;" d="M326.5,178l-8.1,54.8c7.6,1.3,13,0.1,17.3-25C339.9,182.6,334.1,179.3,326.5,178z"/>
</g>
<path style="fill:#47200D;" d="M269.8,75.6c10.6-4.9,35.7,7.6,48.3,26.3s30.7,58.7,6.8,114.7c0,0-30.2-87.3-63.1-124.6
	C262,91.5,263,78.8,269.8,75.6z"/>
<path style="fill:#779299;" d="M160.8,173.6v44.8h174.7V173c-15.3-6.9-42.2-14.6-86.7-14.6C203,158.4,175.8,166.5,160.8,173.6z"/>
<path style="fill:#A5BABF;" d="M160.8,173.6v44.8h87.3v-60C202.3,158.4,175.8,166.5,160.8,173.6z"/>
<path style="fill:#0F1111;" d="M353.1,184.1c0-103.8-47.5-127.5-105-127.5s-105,23.8-105,127.5c0,0,23.3-25.7,105-25.7
	S353.1,184.1,353.1,184.1z"/>
<path style="fill:#F7EEC1;" d="M269.4,95.5c2.9-4.3-0.1-11.7-7-9.3c-6.6,2.4-14-2.7-14.3-2.9l0,0l0,0l0,0l0,0l0,0l0,0l0,0l0,0
	c-0.3,0.2-7.6,5.2-14.3,2.9c-6.9-2.4-9.9,4.9-7,9.3c3.2,4.7,3.7,7,3.7,7.9c0,2.5-9.2,7.8-2,19.5c2.7,4.3,4.5,3.7,14.5,4.7
	c0,0,4.5,1.6,5.1,4.6v-1.4v1.4c0.6-3,5.1-4.6,5.1-4.6c10-1,11.8-0.4,14.5-4.7c7.2-11.7-2-17-2-19.5
	C265.7,102.5,266.2,100.2,269.4,95.5z"/>
<path style="fill:#D3C624;" d="M260.9,103.7c-0.2-0.6-0.7-1.1-1.4-1.2l-6.8-1l-3.1-6.2c-0.6-1.2-2.5-1.2-3.1,0l-3.1,6.2l-6.8,1
	c-0.7,0.1-1.2,0.6-1.4,1.2s0,1.3,0.4,1.8l4.9,4.8l-1.2,6.8c-0.1,0.7,0.2,1.3,0.7,1.7c0.5,0.4,1.3,0.4,1.8,0.1l6.1-3.2l6.1,3.2
	c0.3,0.1,0.5,0.2,0.8,0.2c0.4,0,0.7-0.1,1-0.3c0.5-0.4,0.8-1.1,0.7-1.7l-1.2-6.8l4.9-4.8C260.9,105,261.1,104.4,260.9,103.7z"/>
<g>
	<path style="fill:#0F1111;" d="M317.3,259.1c0,0,35.8-4,35.8-51.3v-23.7l-35.8-41V259.1z"/>
	<path style="fill:#0F1111;" d="M180.8,259.1c0,0-37.7-4-37.7-51.3v-23.7l37.7-41V259.1z"/>
</g>
<path style="fill:#252626;" d="M335.6,179.6h-175l17.2-16.6c0,0,19.3-9.4,70.3-9.4s70.3,9.4,70.3,9.4L335.6,179.6z"/>
<path style="fill:#0F1111;" d="M255.1,309h-14c-2.4,0-4.3,1.4-4.3,3.2v6.3c0,1.8,1.9,3.2,4.3,3.2h14c2.4,0,4.3-1.4,4.3-3.2v-6.3
	C259.4,310.4,257.5,309,255.1,309z"/>
<path style="fill:#CC785E;" d="M274.8,263.8c0,0-14.2,9.6-26.7,9.6s-26.7-9.6-26.7-9.6c0-1.4,11.3-5.3,16.1-6
	c3-0.5,10.6,2.5,10.6,2.5s7.5-2.9,10.4-2.5C263.4,258.5,274.8,263.8,274.8,263.8z"/>
<path style="fill:#C16952;" d="M274.8,263.8c0,0-14.2,13.5-26.7,13.5s-26.7-13.5-26.7-13.5s6.5,1.5,19.6,0.7c2.2-0.1,5.1,1.6,7,1.6
	c1.7,0,4.2-1.8,6.1-1.7C267.9,265.2,274.8,263.8,274.8,263.8z"/>
<g>
	<path style="fill:#3A3A38;" d="M227.2,424.1h-35.1c-2.3,0-4.2,1.9-4.2,4.2v60.6c14.1,3.5,28.6,5.8,43.5,6.8v-67.4
		C231.4,425.9,229.5,424.1,227.2,424.1z"/>
	<path style="fill:#3A3A38;" d="M231.4,463.4c0,2.3-1.9,4.2-4.2,4.2h-35.1c-2.3,0-4.2-1.9-4.2-4.2V434c0-2.3,1.9-4.2,4.2-4.2h35.1
		c2.3,0,4.2,1.9,4.2,4.2V463.4z"/>
</g>
<path style="fill:#444442;" d="M229.1,464.3c0,0.6-0.5,1.1-1.1,1.1h-36.7c-0.6,0-1.1-0.5-1.1-1.1v-10c0-0.6,0.5-1.1,1.1-1.1h36.8
	c0.6,0,1.1,0.5,1.1,1.1v10H229.1z"/>
<path style="fill:#9CB797;" d="M224.7,461.9c0,0.4-0.3,0.6-0.6,0.6h-28.9c-0.4,0-0.6-0.3-0.6-0.6v-5c0-0.4,0.3-0.6,0.6-0.6h28.9
	c0.4,0,0.6,0.3,0.6,0.6V461.9z"/>
<g>
	<path style="fill:#3A3A38;" d="M227.6,427.6c0,0.9-0.8,1.7-1.7,1.7h-6.5c-0.9,0-1.7-0.8-1.7-1.7V418c0-0.9,0.8-1.7,1.7-1.7h6.5
		c0.9,0,1.7,0.8,1.7,1.7V427.6z"/>
	<path style="fill:#3A3A38;" d="M223.5,427.2c0,0.6-0.5,1-1,1l0,0c-0.6,0-1-0.5-1-1v-30.9c0-0.6,0.5-1,1-1l0,0c0.6,0,1,0.5,1,1
		V427.2z"/>
	<path style="fill:#3A3A38;" d="M224.9,396.1c0,1.5-1.1,1.7-2.6,1.7c-1.4,0-2.6-0.2-2.6-1.7s1.1-1.7,2.6-1.7
		S224.9,394.6,224.9,396.1z"/>
</g>
<path style="fill:#545454;" d="M225,433.1c0,13.4-2.7,17.7-15.3,17.7c-12.5,0-15.3-4.7-15.3-17.7c0-5.6,6.8-5.2,15.3-5.2
	C218.2,428,225,427.5,225,433.1z"/>
<path style="fill:#4C4C4B;" d="M221.7,434.5c0,10.5-2.1,13.9-11.9,13.9c-9.8,0-11.9-3.7-11.9-13.9c0-4.4,5.3-4,11.9-4
	S221.7,430.1,221.7,434.5z"/>
<g>
</g>
<g>
</g>
<g>
</g>
<g>
</g>
<g>
</g>
<g>
</g>
<g>
</g>
<g>
</g>
<g>
</g>
<g>
</g>
<g>
</g>
<g>
</g>
<g>
</g>
<g>
</g>
<g>
</g>
</svg>
